<svg xmlns="http://www.w3.org/2000/svg" width="120" height="120" viewBox="0 0 120 120">
  <rect width="120" height="120" fill="#282828"/>
  <g fill="#3c3836">
    <rect x="10" y="10" width="20" height="8" rx="2"/><rect x="15" y="5" width="8" height="20" rx="2" opacity=".7"/>
    <rect x="70" y="10" width="20" height="8" rx="2"/><rect x="75" y="5" width="8" height="20" rx="2" opacity=".7"/>
    <rect x="40" y="52" width="20" height="8" rx="2"/><rect x="45" y="47" width="8" height="20" rx="2" opacity=".7"/>
    <rect x="100" y="52" width="20" height="8" rx="2"/><rect x="105" y="47" width="8" height="20" rx="2" opacity=".7"/>
    <rect x="10" y="92" width="20" height="8" rx="2"/><rect x="15" y="87" width="8" height="20" rx="2" opacity=".7"/>
    <rect x="70" y="92" width="20" height="8" rx="2"/><rect x="75" y="87" width="8" height="20" rx="2" opacity=".7"/>
  </g>
  <rect x="44" y="14" width="6" height="6" rx="1" fill="#fabd2f" opacity=".15"/>
  <rect x="104" y="14" width="6" height="6" rx="1" fill="#fe8019" opacity=".15"/>
  <rect x="14" y="56" width="6" height="6" rx="1" fill="#b8bb26" opacity=".15"/>
  <rect x="74" y="56" width="6" height="6" rx="1" fill="#fb4934" opacity=".12"/>
  <rect x="44" y="96" width="6" height="6" rx="1" fill="#83a598" opacity=".15"/>
  <rect x="104" y="96" width="6" height="6" rx="1" fill="#d3869b" opacity=".15"/>
  <g fill="#504945">
    <rect x="-4" y="-4" width="8" height="8" rx="2"/><rect x="116" y="-4" width="8" height="8" rx="2"/>
    <rect x="-4" y="116" width="8" height="8" rx="2"/><rect x="116" y="116" width="8" height="8" rx="2"/>
    <rect x="56" y="-4" width="8" height="8" rx="2" opacity=".6"/><rect x="-4" y="36" width="8" height="8" rx="2" opacity=".6"/>
    <rect x="116" y="36" width="8" height="8" rx="2" opacity=".6"/><rect x="56" y="76" width="8" height="8" rx="2" opacity=".6"/>
    <rect x="-4" y="76" width="8" height="8" rx="2" opacity=".6"/><rect x="116" y="76" width="8" height="8" rx="2" opacity=".6"/>
    <rect x="56" y="116" width="8" height="8" rx="2" opacity=".6"/>
  </g>
</svg>
